<?xml version="1.0" encoding="utf-8"?>
<svg xmlns="http://www.w3.org/2000/svg" xmlns:xlink="http://www.w3.org/1999/xlink" style="margin: auto; background: rgb(241, 242, 243); display: block; shape-rendering: auto;" width="200px" height="200px" viewBox="0 0 100 100" preserveAspectRatio="xMidYMid">
<g transform="rotate(0 50 50)">
  <rect x="47" y="24" rx="3" ry="6" width="6" height="12" fill="#93dbe9">
    <animate attributeName="opacity" values="1;0" keyTimes="0;1" dur="2.0833333333333335s" begin="-1.9097222222222223s" repeatCount="indefinite"></animate>
  </rect>
</g><g transform="rotate(30 50 50)">
  <rect x="47" y="24" rx="3" ry="6" width="6" height="12" fill="#93dbe9">
    <animate attributeName="opacity" values="1;0" keyTimes="0;1" dur="2.0833333333333335s" begin="-1.7361111111111112s" repeatCount="indefinite"></animate>
  </rect>
</g><g transform="rotate(60 50 50)">
  <rect x="47" y="24" rx="3" ry="6" width="6" height="12" fill="#93dbe9">
    <animate attributeName="opacity" values="1;0" keyTimes="0;1" dur="2.0833333333333335s" begin="-1.5625s" repeatCount="indefinite"></animate>
  </rect>
</g><g transform="rotate(90 50 50)">
  <rect x="47" y="24" rx="3" ry="6" width="6" height="12" fill="#93dbe9">
    <animate attributeName="opacity" values="1;0" keyTimes="0;1" dur="2.0833333333333335s" begin="-1.3888888888888888s" repeatCount="indefinite"></animate>
  </rect>
</g><g transform="rotate(120 50 50)">
  <rect x="47" y="24" rx="3" ry="6" width="6" height="12" fill="#93dbe9">
    <animate attributeName="opacity" values="1;0" keyTimes="0;1" dur="2.0833333333333335s" begin="-1.215277777777778s" repeatCount="indefinite"></animate>
  </rect>
</g><g transform="rotate(150 50 50)">
  <rect x="47" y="24" rx="3" ry="6" width="6" height="12" fill="#93dbe9">
    <animate attributeName="opacity" values="1;0" keyTimes="0;1" dur="2.0833333333333335s" begin="-1.0416666666666667s" repeatCount="indefinite"></animate>
  </rect>
</g><g transform="rotate(180 50 50)">
  <rect x="47" y="24" rx="3" ry="6" width="6" height="12" fill="#93dbe9">
    <animate attributeName="opacity" values="1;0" keyTimes="0;1" dur="2.0833333333333335s" begin="-0.8680555555555556s" repeatCount="indefinite"></animate>
  </rect>
</g><g transform="rotate(210 50 50)">
  <rect x="47" y="24" rx="3" ry="6" width="6" height="12" fill="#93dbe9">
    <animate attributeName="opacity" values="1;0" keyTimes="0;1" dur="2.0833333333333335s" begin="-0.6944444444444444s" repeatCount="indefinite"></animate>
  </rect>
</g><g transform="rotate(240 50 50)">
  <rect x="47" y="24" rx="3" ry="6" width="6" height="12" fill="#93dbe9">
    <animate attributeName="opacity" values="1;0" keyTimes="0;1" dur="2.0833333333333335s" begin="-0.5208333333333334s" repeatCount="indefinite"></animate>
  </rect>
</g><g transform="rotate(270 50 50)">
  <rect x="47" y="24" rx="3" ry="6" width="6" height="12" fill="#93dbe9">
    <animate attributeName="opacity" values="1;0" keyTimes="0;1" dur="2.0833333333333335s" begin="-0.3472222222222222s" repeatCount="indefinite"></animate>
  </rect>
</g><g transform="rotate(300 50 50)">
  <rect x="47" y="24" rx="3" ry="6" width="6" height="12" fill="#93dbe9">
    <animate attributeName="opacity" values="1;0" keyTimes="0;1" dur="2.0833333333333335s" begin="-0.1736111111111111s" repeatCount="indefinite"></animate>
  </rect>
</g><g transform="rotate(330 50 50)">
  <rect x="47" y="24" rx="3" ry="6" width="6" height="12" fill="#93dbe9">
    <animate attributeName="opacity" values="1;0" keyTimes="0;1" dur="2.0833333333333335s" begin="0s" repeatCount="indefinite"></animate>
  </rect>
</g>
<!-- [ldio] generated by https://loading.io/ --></svg>